<?xml version="1.0" encoding="utf-8"?>
<svg width="24" height="24" xmlns="http://www.w3.org/2000/svg">
    <circle cx="12" cy="12" r="10"
            style="stroke: rgb(61, 61, 61); fill: rgb(214, 214, 214);"
    />
    <path fill-rule="evenodd" clip-rule="evenodd" style="fill: #d71d24;"
          d="M 7.55 7.549 C 7.55 6.73 8.213 6.066 9.033 6.066 L 14.966 6.066 C 15.785 6.066 16.449 6.73 16.449 7.549 L 16.449 15.707 C 16.449 16.237 16.166 16.727 15.707 16.991 L 15.707 17.005 C 15.708 17.718 14.936 18.165 14.318 17.809 C 14.087 17.676 13.925 17.45 13.872 17.19 L 10.127 17.19 C 9.985 17.89 9.139 18.173 8.604 17.7 C 8.405 17.524 8.291 17.271 8.291 17.005 L 8.291 16.991 C 7.832 16.727 7.55 16.237 7.55 15.707 L 7.55 7.549 Z M 8.291 9.032 C 8.291 8.623 8.624 8.291 9.033 8.291 L 14.966 8.291 C 15.375 8.291 15.707 8.623 15.707 9.032 L 15.707 13.111 C 15.707 13.931 15.044 14.595 14.224 14.595 L 9.774 14.595 C 8.955 14.595 8.291 13.931 8.291 13.111 L 8.291 9.032 Z M 10.145 6.808 C 9.86 6.808 9.682 7.117 9.824 7.364 C 9.89 7.479 10.013 7.549 10.145 7.549 L 13.853 7.549 C 14.139 7.549 14.317 7.24 14.174 6.993 C 14.108 6.878 13.986 6.808 13.853 6.808 L 10.145 6.808 Z M 14.224 15.707 C 14.224 15.502 14.39 15.336 14.595 15.336 L 15.337 15.336 C 15.541 15.336 15.707 15.502 15.707 15.707 L 15.707 16.078 C 15.707 16.282 15.541 16.449 15.337 16.449 L 14.595 16.449 C 14.39 16.449 14.224 16.282 14.224 16.078 L 14.224 15.707 Z M 8.662 15.336 C 8.457 15.336 8.291 15.502 8.291 15.707 L 8.291 16.078 C 8.291 16.282 8.457 16.449 8.662 16.449 L 9.404 16.449 C 9.608 16.449 9.774 16.282 9.774 16.078 L 9.774 15.707 C 9.774 15.502 9.608 15.336 9.404 15.336 L 8.662 15.336 Z"/>
</svg>