<?xml version="1.0" encoding="utf-8"?>
<svg width="24" height="24" xmlns="http://www.w3.org/2000/svg">
    <circle cx="12" cy="12" r="10"
            style="stroke: rgb(61, 61, 61); fill: rgb(214, 214, 214);"
    />
    <path fill-rule="evenodd" clip-rule="evenodd" style="fill: #1E78FF;"
          d="M 9.931 5.792 C 9.931 5.564 10.116 5.379 10.345 5.379 L 13.656 5.379 C 13.974 5.379 14.173 5.723 14.014 5.999 C 13.94 6.127 13.803 6.206 13.656 6.206 L 10.345 6.206 C 10.116 6.206 9.931 6.021 9.931 5.792 Z M 10.427 16.967 L 13.573 16.967 L 14.897 18.622 L 16.139 18.622 L 14.646 16.756 C 14.945 16.589 15.192 16.33 15.342 16.006 L 16.274 13.989 C 16.723 13.017 16.847 11.925 16.625 10.877 L 16.141 8.589 C 15.898 7.441 14.885 6.62 13.712 6.62 L 10.288 6.62 C 9.115 6.62 8.102 7.442 7.859 8.59 L 7.375 10.877 C 7.153 11.925 7.277 13.017 7.727 13.989 L 8.659 16.006 C 8.808 16.33 9.055 16.589 9.354 16.756 L 7.862 18.622 L 9.103 18.622 L 10.427 16.967 Z M 10.138 14.07 C 9.66 14.07 9.361 14.587 9.6 15.001 C 9.711 15.193 9.916 15.311 10.138 15.311 C 10.616 15.311 10.914 14.794 10.675 14.38 C 10.564 14.188 10.36 14.07 10.138 14.07 Z M 13.242 14.69 C 13.242 14.212 13.759 13.914 14.173 14.153 C 14.365 14.264 14.483 14.469 14.483 14.69 C 14.483 15.168 13.966 15.467 13.552 15.228 C 13.36 15.117 13.242 14.912 13.242 14.69 Z M 9.992 7.862 C 9.512 7.862 9.133 8.269 9.167 8.748 L 9.442 12.617 C 9.456 12.806 9.586 12.966 9.769 13.018 C 11.227 13.435 12.773 13.435 14.232 13.018 C 14.414 12.966 14.544 12.805 14.558 12.616 L 14.834 8.748 C 14.868 8.269 14.489 7.861 14.008 7.862 L 9.992 7.862 Z"/>
</svg>