<?xml version="1.0" encoding="utf-8"?>
<svg width="24" height="24" xmlns="http://www.w3.org/2000/svg">
    <circle cx="12" cy="12" r="10"
            style="stroke: rgb(61, 61, 61); fill: rgb(214, 214, 214);"
    />
    <path fill-rule="evenodd" clip-rule="evenodd" style="fill: #0097da;"
          d="M 11.29 6.514 L 11.29 5.973 C 11.29 5.92 11.344 5.875 11.422 5.862 C 11.796 5.802 12.178 5.802 12.552 5.862 C 12.63 5.875 12.685 5.92 12.685 5.973 L 12.685 6.514 L 11.29 6.514 Z M 8.153 13.493 L 8.149 14.19 C 8.464 14.19 8.636 14.119 8.826 14.042 C 9.059 13.947 9.319 13.84 9.894 13.84 C 10.471 13.84 10.834 14.053 11.163 14.243 C 11.43 14.398 11.674 14.539 11.987 14.539 C 12.301 14.539 12.544 14.398 12.813 14.243 C 13.14 14.053 13.506 13.84 14.081 13.84 C 14.657 13.84 14.916 13.947 15.149 14.042 C 15.34 14.119 15.512 14.19 15.825 14.19 L 15.825 13.493 C 15.827 13.493 16.44 12.102 16.729 11.45 C 16.808 11.269 16.722 11.059 16.538 10.986 L 15.825 10.701 L 15.825 8.259 C 15.825 7.488 15.2 6.863 14.429 6.863 L 9.546 6.863 C 8.776 6.863 8.152 7.488 8.151 8.259 L 8.149 10.701 L 7.438 10.986 C 7.255 11.06 7.17 11.27 7.249 11.451 L 8.153 13.493 Z M 9.15 16.54 C 8.774 16.755 8.306 16.981 7.452 16.981 L 6.405 16.981 L 6.405 15.586 L 7.452 15.586 C 7.993 15.586 8.223 15.463 8.457 15.329 L 8.523 15.29 C 8.819 15.119 9.219 14.887 9.893 14.887 C 10.626 14.887 11.031 15.157 11.328 15.354 L 11.331 15.356 C 11.555 15.505 11.676 15.586 11.987 15.586 C 12.306 15.586 12.439 15.502 12.671 15.35 L 12.685 15.341 C 12.974 15.152 13.379 14.887 14.081 14.887 C 14.728 14.887 15.129 15.117 15.417 15.282 L 15.493 15.326 C 15.736 15.461 15.978 15.586 16.523 15.586 L 17.57 15.586 L 17.57 16.981 L 16.523 16.981 C 15.671 16.981 15.193 16.757 14.812 16.542 L 14.741 16.504 C 14.466 16.348 14.351 16.284 14.081 16.284 C 13.794 16.284 13.678 16.359 13.432 16.519 C 13.129 16.716 12.715 16.981 11.987 16.981 C 11.255 16.981 10.85 16.712 10.553 16.515 L 10.55 16.513 C 10.326 16.363 10.205 16.284 9.893 16.284 C 9.597 16.284 9.476 16.353 9.211 16.506 L 9.15 16.54 Z M 14.779 7.91 L 9.196 7.91 L 9.196 10.352 L 11.987 9.305 L 14.779 10.352 L 14.779 7.91 Z"/>
</svg>